#define iconify_hover_width 15
#define iconify_hover_height 15
static unsigned char iconify_hover_bits[] = {
   0xe0, 0x03, 0xf8, 0x0f, 0xfc, 0x1f, 0xfe, 0x3f, 0xfe, 0x3f, 0xff, 0x7f,
   0xff, 0x7f, 0xff, 0x7f, 0xff, 0x7f, 0x0f, 0x78, 0x0e, 0x38, 0xfe, 0x3f,
   0xfc, 0x1f, 0xf8, 0x0f, 0xe0, 0x03 };
