#define max_pressed_width 15
#define max_pressed_height 15
static unsigned char max_pressed_bits[] = {
   0xe0, 0x03, 0xf8, 0x0f, 0xfc, 0x1f, 0xfe, 0x3f, 0x0e, 0x38, 0x0f, 0x78,
   0xcf, 0x79, 0xcf, 0x79, 0xcf, 0x79, 0x0f, 0x78, 0x0e, 0x38, 0xfe, 0x3f,
   0xfc, 0x1f, 0xf8, 0x0f, 0xe0, 0x03 };
